<svg width="24" height="28" viewBox="0 0 24 28" fill="none" xmlns="http://www.w3.org/2000/svg">
<rect x="3" width="18" height="28" rx="9" fill="#333333" fill-opacity="0.66"/>
<path fill-rule="evenodd" clip-rule="evenodd" d="M10 10.5C10.8284 10.5 11.5 9.82843 11.5 9C11.5 8.17157 10.8284 7.5 10 7.5C9.17157 7.5 8.5 8.17157 8.5 9C8.5 9.82843 9.17157 10.5 10 10.5Z" fill="white" fill-opacity="0.5"/>
<path fill-rule="evenodd" clip-rule="evenodd" d="M10 15.5C10.8284 15.5 11.5 14.8284 11.5 14C11.5 13.1716 10.8284 12.5 10 12.5C9.17157 12.5 8.5 13.1716 8.5 14C8.5 14.8284 9.17157 15.5 10 15.5Z" fill="white" fill-opacity="0.5"/>
<path fill-rule="evenodd" clip-rule="evenodd" d="M10 20.5C10.8284 20.5 11.5 19.8284 11.5 19C11.5 18.1716 10.8284 17.5 10 17.5C9.17157 17.5 8.5 18.1716 8.5 19C8.5 19.8284 9.17157 20.5 10 20.5Z" fill="white" fill-opacity="0.5"/>
<path fill-rule="evenodd" clip-rule="evenodd" d="M14 10.5C14.8284 10.5 15.5 9.82843 15.5 9C15.5 8.17157 14.8284 7.5 14 7.5C13.1716 7.5 12.5 8.17157 12.5 9C12.5 9.82843 13.1716 10.5 14 10.5Z" fill="white" fill-opacity="0.5"/>
<path fill-rule="evenodd" clip-rule="evenodd" d="M14 15.5C14.8284 15.5 15.5 14.8284 15.5 14C15.5 13.1716 14.8284 12.5 14 12.5C13.1716 12.5 12.5 13.1716 12.5 14C12.5 14.8284 13.1716 15.5 14 15.5Z" fill="white" fill-opacity="0.5"/>
<path fill-rule="evenodd" clip-rule="evenodd" d="M14 20.5C14.8284 20.5 15.5 19.8284 15.5 19C15.5 18.1716 14.8284 17.5 14 17.5C13.1716 17.5 12.5 18.1716 12.5 19C12.5 19.8284 13.1716 20.5 14 20.5Z" fill="white" fill-opacity="0.5"/>
</svg>
