<svg width="512" height="512" viewBox="0 0 512 512" fill="none" xmlns="http://www.w3.org/2000/svg">
<path fill-rule="evenodd" clip-rule="evenodd" d="M190.061 133.722C144.74 133.722 108 170.44 108 215.734C108 233.673 115.158 267.489 149.873 287.255L108 380H310.755C356.075 380 405 343.282 405 297.987C405 261.768 370.048 237.061 351.665 226.877L392.815 133L374.209 133.082L374.245 133L354.385 133.087L354.423 133L190.061 133.722ZM321.513 154.714L228.5 155.122H228.453C194.98 155.122 167.82 182.245 167.82 215.734C167.82 229.225 173.258 254.076 198.878 268.664L215.811 278.306L179.56 358.599H272.362C305.835 358.599 332.995 331.476 332.995 297.987C332.995 271.296 316.137 252.937 302.879 245.592L285.82 236.142L321.513 154.714Z" fill="url(#paint0_linear_626_362)"/>
<defs>
<linearGradient id="paint0_linear_626_362" x1="256.5" y1="133" x2="256.5" y2="380" gradientUnits="userSpaceOnUse">
<stop stop-color="#ECD3FF"/>
<stop offset="1" stop-color="#C1DEFF"/>
</linearGradient>
</defs>
</svg>
